<?xml version="1.0" encoding="UTF-8"?>
<svg version="1.1" xmlns="http://www.w3.org/2000/svg" width="500" height="500">
<path d="M0 0 C1.97734131 0.00845947 1.97734131 0.00845947 3.99462891 0.01708984 C35.42142682 0.4078453 60.07297744 12.83048007 83.25 33.3125 C86.71929154 31.78569197 89.26179832 29.71722698 92.125 27.25 C114.42665228 8.842287 138.94115035 -0.13070671 167.9375 0 C169.25242432 0.00563965 170.56734863 0.0112793 171.92211914 0.01708984 C187.9523775 0.21629699 201.73975206 2.37315107 216.25 9.3125 C216.88035156 9.61317383 217.51070313 9.91384766 218.16015625 10.22363281 C252.22467023 26.7913737 276.56385224 57.15964228 289.00390625 92.5078125 C294.15777683 107.84221576 295.63345881 123.79100228 295.5625 139.875 C295.55827026 140.91406494 295.55827026 140.91406494 295.55395508 141.97412109 C295.28221031 186.73509938 277.9540739 223.36241087 247.7421875 255.640625 C245.09302759 258.48079017 242.5363499 261.38661327 239.9921875 264.3203125 C237.93499601 266.67270635 235.84403085 268.99284966 233.75 271.3125 C230.47804226 274.9381829 227.24614232 278.59432742 224.0390625 282.27734375 C222.08863691 284.49605933 220.10856303 286.68586771 218.125 288.875 C213.71797863 293.75500662 209.42090467 298.72474944 205.12744141 303.7043457 C201.80726888 307.54520591 198.4371559 311.32599615 195 315.0625 C191.79684278 318.54935069 188.76566734 322.11189384 185.8125 325.8125 C181.83445886 330.75172569 177.46857523 335.12977822 172.94140625 339.5625 C169.53616541 343.04187526 166.52767014 346.75816885 163.49609375 350.5625 C161.17195569 353.40805338 158.74007356 356.11140326 156.25 358.8125 C152.0274009 363.3974126 148.05599503 368.13550439 144.16015625 373 C141.08406047 376.72402597 141.08406047 376.72402597 139.25 378.3125 C138.59 378.3125 137.93 378.3125 137.25 378.3125 C136.92708984 379.11494141 136.92708984 379.11494141 136.59765625 379.93359375 C134.75749526 383.18187794 132.25155399 385.69667062 129.6875 388.375 C125.84748935 392.45393443 122.13872596 396.56891406 118.625 400.9375 C104.3665998 418.51599699 104.3665998 418.51599699 95.25 421.3125 C94.26 421.6425 93.27 421.9725 92.25 422.3125 C81.03061654 423.08932451 71.49419667 422.78868915 62.375 415.4375 C53.81485942 407.37886261 46.60639 397.78265266 39.23046875 388.66015625 C37.46731378 386.57010469 35.65113706 384.64955566 33.6875 382.75 C32.883125 381.945625 32.07875 381.14125 31.25 380.3125 C31.25 379.6525 31.25 378.9925 31.25 378.3125 C30.38955078 377.95478516 30.38955078 377.95478516 29.51171875 377.58984375 C26.77102489 376.04199074 25.13939755 374.23940978 23.0625 371.875 C22.27359375 370.9778125 21.4846875 370.080625 20.671875 369.15625 C17.57753998 365.52290179 14.57641979 361.81890089 11.57421875 358.109375 C8.36167599 354.24352523 4.97624199 350.55054642 1.57421875 346.8515625 C-0.33986148 344.76055048 -2.21229647 342.64714978 -4.0625 340.5 C-7.37102561 336.68851563 -10.80800562 333.00291069 -14.25 329.3125 C-19.29964464 323.89355934 -24.2459412 318.41474889 -29.05712891 312.78222656 C-37.78950557 302.55995191 -46.7019988 292.53463198 -55.80053711 282.63671875 C-58.92104084 279.23552897 -61.98386552 275.79163114 -65.0078125 272.3046875 C-67.06500399 269.95229365 -69.15596915 267.63215034 -71.25 265.3125 C-75.12483512 261.01365094 -78.96603937 256.69151895 -82.75 252.3125 C-84.0184375 250.86230469 -84.0184375 250.86230469 -85.3125 249.3828125 C-99.51686379 233.00892772 -111.5488519 214.8379281 -118.75 194.3125 C-119.20117188 193.0853125 -119.65234375 191.858125 -120.1171875 190.59375 C-131.20053493 159.15727294 -130.57548174 118.40679346 -118.75 87.3125 C-118.50266113 86.65975098 -118.25532227 86.00700195 -118.00048828 85.33447266 C-104.37074846 50.24623475 -76.89727975 22.34175988 -42.7578125 7.00390625 C-29.20274214 1.14062406 -14.62645811 -0.06572423 0 0 Z M-62.75 39.3125 C-63.67425781 40.02277344 -64.59851563 40.73304687 -65.55078125 41.46484375 C-77.37262804 50.76862082 -85.27136264 61.44214455 -92.75 74.3125 C-93.12576172 74.95413086 -93.50152344 75.59576172 -93.88867188 76.25683594 C-110.8561059 105.54909949 -114.72214014 141.17372422 -106.62084961 173.91235352 C-99.9416143 198.60537255 -88.19414201 220.21143445 -70.875 239.00390625 C-68.91362106 241.13474256 -67.01305255 243.30429604 -65.125 245.5 C-62.96486495 247.98712797 -60.74165966 250.334334 -58.375 252.625 C-54.61534632 256.31751701 -51.38055739 260.37660392 -48.078125 264.4765625 C-45.11800809 268.0823425 -42.00686489 271.5311692 -38.8671875 274.98046875 C-36.96948831 277.07073889 -35.10266585 279.18236115 -33.25 281.3125 C-28.19678082 287.10577873 -23.07142949 292.83465742 -17.82421875 298.453125 C-12.31748444 304.3542665 -7.02774942 310.32483903 -1.96875 316.62109375 C1.1972823 320.46158011 4.55717439 324.11078685 7.92578125 327.7734375 C9.83986148 329.86444952 11.71229647 331.97785022 13.5625 334.125 C16.2745076 337.25374636 19.08117387 340.28123253 21.91357422 343.30029297 C27.18749123 348.92329664 32.23212476 354.62699993 37.05859375 360.64453125 C41.65380637 366.23905927 46.53068236 371.63240328 51.6875 376.71484375 C54.62025485 379.68783456 57.30727128 382.81115004 60 386 C61.05652647 387.2389342 62.11382494 388.47721044 63.171875 389.71484375 C63.69072266 390.32183105 64.20957031 390.92881836 64.74414062 391.55419922 C66.89873255 394.0699857 69.06287347 396.57482463 71.25 399.0625 C71.930625 399.84109375 72.61125 400.6196875 73.3125 401.421875 C76.68230078 404.71014834 79.45358317 405.6147365 84.125 405.6875 C84.94742188 405.71585937 85.76984375 405.74421875 86.6171875 405.7734375 C92.53647324 404.73712338 96.36343683 400.40098334 100.1875 396.0625 C101.04601562 395.09570312 101.90453125 394.12890625 102.7890625 393.1328125 C105.44369271 390.090522 108.09774043 387.04775696 110.74609375 384 C112.81855816 381.67453344 115.04756923 379.51493077 117.25 377.3125 C122.74153479 371.41179203 127.92141722 365.3063418 132.9921875 359.04296875 C135.94323028 355.47414712 139.0343035 352.04789153 142.15234375 348.625 C143.94507446 346.64865628 145.69795227 344.6479327 147.4375 342.625 C150.30238581 339.32604059 153.27772958 336.14327641 156.27392578 332.96435547 C161.80892687 327.09062575 167.1260859 321.1718796 172.16796875 314.8671875 C175.04191635 311.34080526 178.08951448 307.98728256 181.15234375 304.625 C182.94507446 302.64865628 184.69795227 300.6479327 186.4375 298.625 C189.30238581 295.32604059 192.27772958 292.14327641 195.27392578 288.96435547 C200.80892687 283.09062575 206.1260859 277.1718796 211.16796875 270.8671875 C214.04191635 267.34080526 217.08951448 263.98728256 220.15234375 260.625 C221.94507446 258.64865628 223.69795227 256.6479327 225.4375 254.625 C227.71242232 252.00090355 230.0523588 249.4534883 232.4453125 246.9375 C264.09217301 213.65178422 279.35129259 176.30284689 278.48699951 130.30604553 C278.23903366 121.32631714 276.74821087 112.91744854 274.25 104.3125 C273.95246826 103.24684814 273.95246826 103.24684814 273.64892578 102.15966797 C268.89414592 85.64087428 260.1419397 69.57503835 249.25 56.3125 C248.55132812 55.43980469 247.85265625 54.56710938 247.1328125 53.66796875 C229.40063498 32.8013154 203.62834516 19.1185324 176.36254883 16.72216797 C149.47106832 14.74809363 125.06066556 23.41671212 104.25 40.3125 C103.30769531 41.05242187 102.36539063 41.79234375 101.39453125 42.5546875 C96.04443915 46.62871962 96.04443915 46.62871962 91.25 51.3125 C91.25 51.9725 91.25 52.6325 91.25 53.3125 C88.57356043 54.20464652 86.99615622 54.44790211 84.25 54.4375 C83.2290625 54.44136719 83.2290625 54.44136719 82.1875 54.4453125 C80.25 54.3125 80.25 54.3125 77.25 53.3125 C76.55377886 51.994358 75.88985208 50.6589069 75.25 49.3125 C56.7651829 29.30001206 29.9905749 18.13510277 3.25 16.3125 C-21.07283798 15.72057253 -43.8348306 24.23187326 -62.75 39.3125 Z " fill="#1A1A1A" transform="translate(165.75,38.6875)"/>
<path d="M0 0 C0.66 0.33 1.32 0.66 2 1 C0.56974806 2.65213589 -0.86945545 4.29652589 -2.3125 5.9375 C-3.11300781 6.85402344 -3.91351563 7.77054687 -4.73828125 8.71484375 C-7 11 -7 11 -10 12 C-8.52278578 8.54798361 -6.56205999 6.35038064 -3.875 3.75 C-3.15054688 3.04359375 -2.42609375 2.3371875 -1.6796875 1.609375 C-1.12539062 1.07828125 -0.57109375 0.5471875 0 0 Z " fill="#747474" transform="translate(86,69)"/>
<path d="M0 0 C0.33 0.99 0.66 1.98 1 3 C-1.31 4.98 -3.62 6.96 -6 9 C-6 6 -6 6 -4.6875 4.39453125 C-4.130625 3.87246094 -3.57375 3.35039062 -3 2.8125 C-2.443125 2.28269531 -1.88625 1.75289063 -1.3125 1.20703125 C-0.6628125 0.60955078 -0.6628125 0.60955078 0 0 Z " fill="#656565" transform="translate(369,318)"/>
</svg>
